<svg xmlns="http://www.w3.org/2000/svg" viewBox="0 0 153.1 238.1"><path d="M 153.1 238.1 L 0 238.1 L 0 0 L 153.1 0 L 153.1 238.1 Z" fill="#ff0000"/><path d="M 145.5 220.9 L 145.5 16.3 C 145.5 16.3 145 7.8 134.3 7.3 L 16.2 7.6 C 16.2 7.6 7.5 8.4 7.5 18.1 L 7.5 220.6 C 7.5 220.6 7.7 230.3 17.2 230.9 L 136.7 230.9 C 136.7 230.9 145 230.6 145.5 220.9 Z" fill="#ffffff"/><path d="M 145.4 50.2 C 145.4 50.2 135.4 55.7 128.1 57.6 L 107.8 67.1 L 104 80.2 L 103.5 83.9 C 103.5 83.9 127.6 78.2 145.4 53.7 L 145.4 50.2 Z" fill="#ff0000"/><path d="M 111.4 7.4 L 94.4 7.4 C 94.4 7.4 55.9 23.1 55.5 47.1 C 55.5 47.1 56.1 55.6 59.3 61.3 C 62.4 67.1 63 68.6 63 69.1 C 63 69.1 45.1 73.4 37.3 88.1 C 37.3 88.1 28 89.6 26 97.4 L 28.9 95.4 C 28.9 95.4 31.5 97.6 40.5 95.2 C 40.5 95.2 46.8 102.2 58 102.9 C 58 102.9 58.8 104.1 59.6 104.8 C 60.5 105.6 59.4 107.3 58.3 108.4 C 57.1 109.6 52.5 112.1 51.6 116.4 C 50.8 120.8 52.1 124.3 58.8 126.3 C 65.4 128.3 71.3 128.1 79 125.9 C 86.8 123.8 102.1 115.2 109.1 109.3 C 116.1 103.4 121 98.1 121 98.1 C 121 98.1 121.9 97.4 122 96.6 C 122.1 95.7 120.8 95.3 119.4 95.6 C 118 95.8 112.9 98.2 112.9 98.2 C 112.9 98.2 108 97.7 104 100.3 C 104 100.3 103.1 98.8 101.1 99.1 C 99.1 99.3 95 102.3 94 102.9 C 93 103.6 88.5 107.2 88.5 107.2 L 88.1 105.3 C 88.1 105.3 89.1 104.3 89.8 103.2 C 90.4 102.1 89.4 101.7 88.9 101.8 C 88.9 101.8 91.1 99.8 91.5 98.7 C 91.9 97.6 90.3 97.1 89.8 97.2 C 89.8 97.2 92.4 95.1 91.4 93.7 C 91.4 93.7 107.5 83.9 113.5 67.6 C 113.5 67.6 136.4 52.8 145.3 42.9 L 145.4 41.7 L 130.5 41.4 C 130.5 41.4 128.5 41.8 128.6 39.8 C 128.8 37.8 129 28.4 129 28.4 L 125 28.7 C 125 28.7 111.4 46.1 94.9 58.6 L 88.5 58.9 C 88.5 58.9 88 56.1 86.5 55.2 C 86.5 55.2 87.9 52.9 86.5 51.9 C 86.5 51.9 87.6 48.9 85.8 47.8 C 85.8 47.8 86.5 45.4 85 44.2 C 85 44.2 85.8 42.4 85.1 40.9 L 86.9 38.6 C 86.9 38.6 89.3 37.8 90.6 37.1 C 92 36.3 94 34.2 94.6 33.2 C 95.3 32.2 103.3 24.9 106.3 23.4 C 109.3 21.9 110.1 18.4 110.1 18.4 L 111.3 13.6 C 111.3 13.6 112.8 12.6 113.6 11.8 C 114.5 11.1 113.3 9.6 112.6 9.4 C 112 9.3 111.4 7.4 111.4 7.4 Z" fill="#ffcc00"/><path d="M 55.5 47.1 C 55.5 47.1 33 35.7 24.1 7.4 L 22.8 7.2 C 22.8 7.2 19.5 19.8 23.1 37.7 C 26.8 55.6 42.8 70.2 49.9 74.7 C 49.9 74.7 58.4 70.4 63 69.1 C 63 69.1 62.4 66.1 61.8 65.2 C 61.1 64.3 56.1 58.1 55.5 47.1 Z" fill="#ff0000"/><path d="M 135.6 231.6 C 141.4 231.6 146.2 226.9 146.2 221 L 146.2 17.4 C 146.2 11.5 141.4 6.7 135.6 6.7 L 17.4 6.7 C 11.6 6.7 6.8 11.5 6.8 17.4 L 6.8 221 C 6.8 226.9 11.6 231.6 17.4 231.6 L 135.6 231.6 Z M 144.8 17.4 L 144.8 17.4 L 144.8 221 C 144.8 226.1 140.7 230.2 135.6 230.2 L 17.4 230.2 C 12.3 230.2 8.2 226.1 8.2 221 L 8.2 17.4 C 8.2 12.3 12.3 8.1 17.4 8.1 L 135.6 8.1 C 140.7 8.1 144.8 12.3 144.8 17.4 Z" fill="#000000"/><path d="M 116.8 16.2 C 116.8 16.2 115.8 22.2 110.5 23.9 C 105.3 25.7 102.7 22.9 102.2 20.3 C 101.7 17.6 103.3 14.4 108.3 13.8 C 113.3 13.1 116.8 15.4 116.8 16.2 Z" fill="#000000"/><path d="M 130.5 17.1 C 130.5 17.1 133.5 19.6 132 24.9 C 130.5 30.3 126.2 30.4 124.7 29.3 C 123.2 28.1 121.3 25.1 124.2 20.8 C 127 16.4 129.5 16.8 130.5 17.1 Z" fill="#000000"/><path d="M 141.2 16.4 C 141.2 16.4 145 20.1 143.2 24.9 C 141.3 29.8 137.3 30.4 135.5 29.3 C 133.7 28.1 132.3 24.8 135 20.4 C 137.7 16.1 140.2 16.1 141.2 16.4 Z" fill="#000000"/><path d="M 145.2 69.9 C 145.2 69.9 143.3 74.3 139 74.4 C 134.7 74.6 132.5 73.4 132.3 70.4 C 132.2 67.4 135 66.3 139.3 65.8 C 143.7 65.3 144.8 67.4 145.2 67.9 C 145.5 68.4 145.2 69.9 145.2 69.9 Z" fill="#000000"/><path d="M 131.7 85.4 C 131.7 85.4 130 90.6 123.7 90.4 C 117.3 90.3 116.8 86.3 117 84.8 C 117.2 83.3 118.5 80.1 124.5 80.3 C 130.5 80.4 131.3 84.8 131.7 85.4 Z" fill="#000000"/><path d="M 119.3 105.8 C 119.3 105.8 116.7 109.9 111.3 109.9 C 106 109.9 104.8 106.9 104.7 105.1 C 104.5 103.3 106.5 101.3 111.7 101.4 C 116.8 101.6 119 104.1 119.3 105.8 Z" fill="#000000"/><path d="M 121.3 125.4 C 121.3 125.4 124.5 130.6 120.2 136.4 C 115.8 142.3 110.3 140.3 109.3 139.1 C 108.3 137.9 106.3 133.8 111.3 129.3 C 116.3 124.8 119.5 124.4 121.3 125.4 Z" fill="#000000"/><path d="M 136.5 116.3 C 136.5 116.3 141.5 117.3 142.3 123.1 C 143.2 128.9 139.7 132.3 137.2 132.3 C 134.7 132.3 130.7 130.3 131.3 123.9 C 132 117.6 135.2 116.3 136.5 116.3 Z" fill="#000000"/><path d="M 145.3 110.3 C 145.3 110.3 142.2 107.6 141.3 104.6 C 140.5 101.6 142.7 98.3 145.5 98.4 L 145.3 110.3 Z" fill="#000000"/><path d="M 95.8 141.8 C 95.8 141.8 92.8 146.3 87 145.8 C 81.2 145.3 80 140.6 80.3 139.1 C 80.7 137.6 83 134.8 89 135.4 C 95 136.1 95.8 140.8 95.8 141.8 Z" fill="#000000"/><path d="M 95.5 155.9 C 95.5 155.9 92.3 160.9 85.5 159.9 C 78.7 158.9 77.8 154.4 78.3 152.4 C 78.8 150.4 82.2 148.1 87.5 149.1 C 92.8 150.1 95.8 153.9 95.5 155.9 Z" fill="#000000"/><path d="M 111.7 154.9 C 111.7 154.9 113.3 159.1 121.3 158.9 C 129.3 158.8 129.5 153.4 129.5 152.9 C 129.5 152.4 128.7 147.4 120.2 148.3 C 111.7 149.1 111.7 154.1 111.7 154.9 Z" fill="#000000"/><path d="M 111.7 171.8 C 111.7 171.8 114 175.4 121 174.8 C 128 174.1 128.3 168.6 127.8 167.4 C 127.3 166.3 125 162.9 118.7 164.8 C 112.3 166.6 111.5 170.4 111.7 171.8 Z" fill="#000000"/><path d="M 92 171.9 C 92 171.9 88.3 175.6 82.5 174.8 C 76.7 173.9 74.8 170.4 74.8 168.4 C 74.8 166.4 77.5 163.6 84.2 164.6 C 90.8 165.6 92.2 170.6 92 171.9 Z" fill="#000000"/><path d="M 109.3 190.9 C 109.3 190.9 112.3 194.6 118.5 194.3 C 124.7 193.9 126.7 188.6 126 186.3 C 125.3 183.9 121.7 181.1 116 183.3 C 110.3 185.4 109.2 189.1 109.3 190.9 Z" fill="#000000"/><path d="M 90 190.1 C 90 190.1 86.2 194.8 79.8 194.6 C 73.5 194.4 71.8 191.3 72.2 188.4 C 72.5 185.6 75.3 182.9 81.5 183.6 C 87.7 184.3 90.5 188.6 90 190.1 Z" fill="#000000"/><path d="M 108.3 206.3 C 108.3 206.3 111.2 210.6 118 211.1 C 124.8 211.6 126.7 206.9 126.5 205.3 C 126.3 203.6 125.3 199.8 117.8 200.1 C 110.3 200.4 108.7 204.8 108.3 206.3 Z" fill="#000000"/><path d="M 100.7 213.1 C 100.7 213.1 105.7 213.9 107 219.3 C 108.3 224.6 104.7 227.8 102.5 228.1 C 100.3 228.4 96.2 226.4 95.7 221.4 C 95.2 216.4 98.7 213.1 100.7 213.1 Z" fill="#000000"/><path d="M 92.7 206.4 C 92.7 206.4 90.2 211.8 84 211.9 C 77.8 212.1 76 209.1 76 206.6 C 76 204.1 78.2 201.9 83.5 201.8 C 88.8 201.6 92 204.3 92.7 206.4 Z" fill="#000000"/><path d="M 50.8 154.9 C 50.8 154.9 57.7 155.3 60 160.9 C 62.3 166.6 58.8 170.1 56.3 170.4 C 53.8 170.8 50.5 170.3 48.8 165.1 C 47.2 159.9 49.2 155.4 50.8 154.9 Z" fill="#000000"/><path d="M 39 153.3 C 39 153.3 40 159.3 35.3 162.4 C 30.7 165.6 25.7 164.4 24.7 160.9 C 23.7 157.4 26 154.4 29.3 152.8 C 32.7 151.1 38.2 151.9 39 153.3 Z" fill="#000000"/><path d="M 39.8 138.6 C 39.8 138.6 42.5 133.6 40.2 129.1 C 37.8 124.6 33 124.6 30.8 125.6 C 28.7 126.6 27.7 131.6 30.8 135.6 C 34 139.6 38.5 138.8 39.8 138.6 Z" fill="#000000"/><path d="M 49.8 144.9 C 49.8 144.9 54.3 144.8 58.3 141.4 C 62.3 138.1 62 131.1 57.8 129.1 C 53.7 127.1 50.2 129.1 48.7 135.6 C 47.2 142.1 49.2 144.4 49.8 144.9 Z" fill="#000000"/><path d="M 63.5 67.6 C 63.1 66.2 62.3 65 61.4 63.6 C 59.8 61 57.7 57.8 56.5 51.3 C 54.9 42.1 58.7 33.6 68.8 23.8 C 78.1 14.8 95.7 8.2 95.9 8.1 L 95.4 6.8 C 94.7 7.1 77.3 13.6 67.8 22.8 C 57.3 32.9 53.4 41.8 55.1 51.6 C 56.4 58.4 58.6 61.8 60.2 64.3 C 61.1 65.6 61.8 66.8 62.2 68 C 63.2 71.5 62.5 73.5 60.9 75.5 L 62.1 76.4 C 63.8 74.1 64.8 71.7 63.5 67.6 Z" fill="#000000"/><path d="M 67.8 42.5 C 71.1 39.8 74.1 35.8 75.8 33.4 C 76.4 32.6 76.9 31.8 77.1 31.7 L 78.3 30.5 C 80.6 27.9 86.1 22 92.7 18.4 C 100.5 14.1 109.8 11.3 111.7 10.8 C 112.4 10.6 112.8 10.1 112.9 9.3 C 113 8.3 112.1 6.9 111.1 6.5 L 110.6 7.8 C 111.1 8 111.5 8.8 111.5 9.2 C 111.5 9.4 111.4 9.4 111.3 9.4 C 109.4 9.9 99.9 12.8 92 17.2 C 85.3 20.9 79.6 26.9 77.2 29.5 L 76.2 30.6 C 75.9 30.8 75.5 31.4 74.6 32.6 C 72.9 34.9 70.1 38.9 66.9 41.4 C 62.4 44.9 55.4 46.6 55.3 46.6 L 55.7 48 C 56 47.9 63 46.2 67.8 42.5 Z" fill="#000000"/><path d="M 82.9 21.3 C 92.1 14.3 105.5 8 105.6 7.9 L 105 6.6 C 104.9 6.7 91.4 13.1 82.1 20.2 C 72.8 27.3 63.8 35 63.5 44.1 L 64.9 44.1 C 65.2 35.6 74 28.2 82.9 21.3 Z" fill="#000000"/><path d="M 101.3 18.3 L 104.9 16.9 C 110.2 14.9 113.8 13.4 114.3 12 C 114.6 11.4 114.6 10.8 114.3 10.2 C 113.8 9.2 112.7 8.8 112.6 8.8 L 112.1 10.1 C 112.3 10.2 112.9 10.4 113 10.8 C 113.1 11 113.2 11.2 113 11.5 C 112.6 12.4 107.3 14.5 104.4 15.5 L 100.7 17 C 97.6 18.3 80 29.4 75.7 38.5 L 77 39.1 C 81.2 30.4 98.2 19.6 101.3 18.3 Z" fill="#000000"/><path d="M 74 40.4 C 77.2 37.1 75.5 33.6 75.5 33.5 L 74.2 34.1 C 74.2 34.2 75.4 36.9 73 39.5 C 70.3 42.3 65.8 44.3 65.7 44.3 L 66.3 45.6 C 66.5 45.5 71.1 43.5 74 40.4 Z" fill="#000000"/><path d="M 75.2 39.3 L 73.8 39.6 C 74.2 41.9 69.5 46.1 66.4 48.2 L 67.2 49.4 C 68.1 48.8 75.9 43.3 75.2 39.3 Z" fill="#000000"/><path d="M 73.2 49.4 C 76.2 45.4 74 42.7 73.9 42.6 L 72.8 43.6 C 72.9 43.7 74.4 45.5 72.1 48.5 C 70.2 51 67.3 53 67.3 53 L 68.1 54.2 C 68.2 54.1 71.2 52.1 73.2 49.4 Z" fill="#000000"/><path d="M 73.8 53.1 C 75.5 50 73.8 48 73.7 48 L 72.6 48.9 C 72.7 49 73.8 50.3 72.6 52.4 C 71.2 54.8 67.5 56.3 67.4 56.3 L 67.9 57.6 C 68.1 57.5 72.2 56 73.8 53.1 Z" fill="#000000"/><path d="M 73.7 57.1 C 74.8 54.3 73.2 52.7 73.2 52.6 L 72.2 53.6 C 72.2 53.6 73.1 54.7 72.4 56.5 C 71.4 58.7 68.6 61.2 68.5 61.2 L 69.5 62.3 C 69.6 62.2 72.6 59.5 73.7 57.1 Z" fill="#000000"/><path d="M 75.4 60.3 C 75.5 57.9 73.9 57.1 73.1 57.1 L 72.9 58.5 C 73.2 58.5 74.1 58.7 74 60.2 C 73.9 61.7 70.6 64.2 68.6 65.5 L 69.4 66.7 C 70.4 66.1 75.2 62.9 75.4 60.3 Z" fill="#000000"/><path d="M 75.9 66.3 C 76.1 65.1 76 64 75.5 63.2 C 74.8 62.2 73.8 61.9 73.7 61.9 L 73.3 63.3 C 73.6 63.4 75 63.8 74.5 66 C 74 68 69.8 69.3 68.2 69.6 L 68.5 71 C 69.1 70.8 75.1 69.6 75.9 66.3 Z" fill="#000000"/><path d="M 73.3 71.1 L 72.7 69.8 L 66.7 72.8 L 67.3 74.1 L 73.3 71.1 Z" fill="#000000"/><path d="M 73.8 74.1 L 73.2 72.8 L 65.6 75.8 L 66.1 77.1 L 73.8 74.1 Z" fill="#000000"/><path d="M 73.9 77.6 L 73.4 76.3 L 67.1 78.8 L 67.6 80.1 L 73.9 77.6 Z" fill="#000000"/><path d="M 74.7 80.6 L 74.3 79.3 L 67.3 81.8 L 67.7 83.1 L 74.7 80.6 Z" fill="#000000"/><path d="M 75 84.1 L 74.7 82.8 L 68.5 84.4 L 68.9 85.8 L 75 84.1 Z" fill="#000000"/><path d="M 74.4 87.1 L 73.9 85.8 L 69.1 87.4 L 69.6 88.8 L 74.4 87.1 Z" fill="#000000"/><path d="M 74.7 90.8 L 74.7 89.4 C 74.5 89.4 74 89.4 69.5 91.5 L 70.1 92.8 C 72 91.9 74.3 90.9 74.7 90.8 Z" fill="#000000"/><path d="M 75.7 94 L 75.3 92.6 L 71 93.8 L 71.4 95.1 L 75.7 94 Z" fill="#000000"/><path d="M 77.9 96 L 77.5 94.6 L 72.3 96.1 L 72.7 97.5 L 77.9 96 Z" fill="#000000"/><path d="M 57.1 79.8 L 56.9 78.4 C 56.2 78.5 52.6 79.2 51.6 80.1 L 52.5 81.2 C 53 80.7 55.5 80.1 57.1 79.8 Z" fill="#000000"/><path d="M 60.4 81.6 L 60 80.3 C 54.9 81.8 54.5 82.4 54.4 82.5 L 55.5 83.4 C 55.9 83.1 58.3 82.3 60.4 81.6 Z" fill="#000000"/><path d="M 62.4 83.4 L 61.9 82.1 C 60.7 82.5 57.8 83.5 57.3 83.9 L 58.1 85 C 58.4 84.8 60.5 84.1 62.4 83.4 Z" fill="#000000"/><path d="M 63.7 85.5 L 63.3 84.1 L 58 85.8 L 58.4 87.1 L 63.7 85.5 Z" fill="#000000"/><path d="M 65 87.8 L 64.4 86.5 L 61 88 L 61.6 89.3 L 65 87.8 Z" fill="#000000"/><path d="M 66.2 89.9 L 65.8 88.6 L 61.6 90.1 L 62.1 91.4 L 66.2 89.9 Z" fill="#000000"/><path d="M 68 91.1 L 67.3 89.8 L 64.3 91.5 L 65 92.7 L 68 91.1 Z" fill="#000000"/><path d="M 69.7 93.4 L 69.3 92.1 L 66.3 93.1 L 66.7 94.4 L 69.7 93.4 Z" fill="#000000"/><path d="M 54.9 91.1 L 50.4 90.9 L 50.3 92.3 L 54.8 92.5 L 54.9 91.1 Z" fill="#000000"/><path d="M 56.8 93.7 L 51.4 93.4 L 51.3 94.8 L 56.8 95.1 L 56.8 93.7 Z" fill="#000000"/><path d="M 58.5 95.7 L 54 95.6 L 54 97 L 58.5 97.1 L 58.5 95.7 Z" fill="#000000"/><path d="M 60.7 97.6 L 55.9 97.4 L 55.8 98.8 L 60.6 99 L 60.7 97.6 Z" fill="#000000"/><path d="M 61.9 99.4 C 59.3 99.2 55.2 98.8 54.4 98.6 L 54 100 C 55.2 100.3 61.1 100.8 61.8 100.8 L 61.9 99.4 Z" fill="#000000"/><path d="M 26.1 98.9 C 26.1 98.8 30.7 93.1 38.4 92.3 L 38.3 90.9 C 33.3 91.4 29.7 93.7 27.5 95.5 C 28 94.7 28.6 93.8 29.5 92.7 C 32.5 89.5 37.2 88.6 37.3 88.6 L 37.6 88.6 L 37.8 88.3 C 45.4 74.1 63.2 69.7 63.3 69.6 L 63 68.3 C 62.8 68.3 44.7 72.8 36.7 87.3 C 35.5 87.6 31.3 88.6 28.5 91.8 C 25.2 95.4 24.8 98.2 24.8 98.4 L 24.5 100.9 L 26.1 98.9 Z" fill="#000000"/><path d="M 90.3 94.7 C 105 86.8 111.9 73.4 114.2 68 L 112.9 67.5 C 110.6 72.7 103.9 85.8 89.7 93.5 C 76.9 100.4 60.9 103.7 52.5 101.3 C 44.4 98.9 40.9 94.7 40.9 94.7 L 40.6 94.3 L 40.1 94.4 C 34.3 96.5 29.3 94.8 29.2 94.8 L 28.8 96.1 C 29 96.2 34 97.9 40.1 95.9 C 41.1 97 44.8 100.5 52.1 102.6 C 61 105.2 77.1 101.9 90.3 94.7 Z" fill="#000000"/><path d="M 81.8 39.5 C 85.5 39.5 86.6 38 87.6 36.7 L 87.7 36.5 L 88.4 35.5 C 89.9 32.9 93.5 26.7 103.3 21.9 L 102.7 20.6 C 92.5 25.6 88.6 32.3 87.1 34.8 L 86.6 35.7 L 86.5 35.9 C 85.6 37.1 84.8 38.1 81.8 38.1 C 78.2 38.1 74.5 39.7 74.4 39.8 L 75 41.1 C 75 41.1 78.5 39.5 81.8 39.5 Z" fill="#000000"/><path d="M 91.2 37.2 C 92.8 36.1 94.2 34.6 95.5 33 C 96.6 31.7 97.7 30.5 98.8 29.7 C 101.5 27.5 105.1 24.9 106.1 24.4 L 105.6 23.1 C 104.3 23.7 100.3 26.6 97.9 28.6 C 96.7 29.5 95.6 30.8 94.4 32.1 C 93.1 33.6 91.8 35.1 90.4 36 C 88 37.7 84.8 37.9 84.8 37.9 L 84.9 39.3 C 85 39.3 88.4 39.1 91.2 37.2 Z" fill="#000000"/><path d="M 82.5 43.2 C 86.8 40.7 87.7 38.8 87.8 38.6 L 86.5 38 C 86.5 38 85.7 39.7 81.8 42 C 77.8 44.4 74 45.8 73.9 45.8 L 74.4 47.1 C 74.6 47.1 78.4 45.7 82.5 43.2 Z" fill="#000000"/><path d="M 83.4 46.5 C 86.5 44.3 86.5 41.4 86 40.2 L 84.7 40.7 C 84.7 40.8 85.6 43.2 82.6 45.4 C 79.2 47.8 73.9 50.4 73.9 50.5 L 74.5 51.7 C 74.7 51.6 79.9 49 83.4 46.5 Z" fill="#000000"/><path d="M 86.4 47.5 C 86.9 46.8 87 46.1 86.9 45.4 C 86.6 44.2 85.7 43.6 85.6 43.5 L 84.8 44.7 C 85.1 44.9 86 45.6 85.2 46.7 C 84.4 48 78 52.6 74.1 55.2 L 74.9 56.4 C 75.3 56.1 85.2 49.5 86.4 47.5 Z" fill="#000000"/><path d="M 87.3 51.4 C 87.8 50.2 87.8 49.3 87.4 48.5 C 86.9 47.5 86 47.1 85.9 47.1 L 85.4 48.4 C 85.5 48.4 85.9 48.6 86.1 49.1 C 86.3 49.5 86.3 50.1 86 50.9 C 85.2 53.1 76.4 58.4 75.4 58.8 L 75.9 60.1 C 76.8 59.8 86.2 54.4 87.3 51.4 Z" fill="#000000"/><path d="M 86.9 55.4 C 87.8 54.2 88.1 53.2 87.8 52.3 C 87.4 51.4 86.4 51.1 86.3 51.1 L 86 52.5 C 86 52.5 86.4 52.6 86.4 52.8 C 86.5 53 86.6 53.5 85.8 54.5 C 83.9 57 76.4 61.5 76.3 61.5 L 77 62.7 C 77.3 62.5 84.8 58.1 86.9 55.4 Z" fill="#000000"/><path d="M 89 59 C 89.4 55.9 86.8 54.4 86.7 54.3 L 86 55.6 C 86.1 55.6 87.9 56.7 87.6 58.9 C 87.5 60.3 83 63.6 76.5 67.2 L 77.2 68.4 C 81.5 66.1 88.7 61.7 89 59 Z" fill="#000000"/><path d="M 92.7 66.9 C 92.6 66.5 92.5 65.5 90.7 65.4 C 87 65.2 81.5 66.7 81.3 66.8 L 81.7 68.1 C 81.7 68.1 87.1 66.7 90.6 66.8 C 91.1 66.8 91.2 66.9 91.2 67 C 91.2 67 91.2 67.2 91 67.5 C 90 68.8 86.6 71 81.2 71.7 L 81.4 73.1 C 87.9 72.3 92.8 69 92.7 66.9 Z" fill="#000000"/><path d="M 96.3 69.6 C 96.5 68.9 96.1 68.5 96 68.4 C 94.8 67.4 91.8 67.7 91.3 67.7 L 91.4 69.1 C 92.5 69 94.1 69.1 94.8 69.4 C 94.4 70.5 90.4 74.1 86.4 74.7 L 86.6 76.1 C 90.9 75.4 95.8 71.5 96.3 69.6 Z" fill="#000000"/><path d="M 99.3 73.1 C 99.4 72.5 99.1 72.1 98.7 71.8 C 97.1 70.9 94.3 70.7 94.2 70.7 L 94.1 72.1 C 94.2 72.1 96.5 72.3 97.9 73 C 97.7 73.9 94.6 76.6 91.6 77.6 L 92.1 78.9 C 95.1 77.9 99.2 74.9 99.3 73.1 Z" fill="#000000"/><path d="M 100.7 75.1 C 100.6 73.9 99.5 73.3 98.9 73.1 L 98.4 74.4 C 98.5 74.4 99.2 74.7 99.3 75.2 C 99.3 75.7 98.9 77.2 93.2 80.3 L 93.8 81.6 C 98.6 79 100.8 76.9 100.7 75.1 Z" fill="#000000"/><path d="M 102.5 78.1 L 101.5 77.2 C 101.4 77.2 99 80.1 97.3 81 L 98 82.2 C 99.9 81.2 102.4 78.2 102.5 78.1 Z" fill="#000000"/><path d="M 103.9 81.2 L 102.8 80.3 C 102.8 80.4 101.4 82.1 99.5 82.6 L 99.8 84 C 102.2 83.4 103.8 81.3 103.9 81.2 Z" fill="#000000"/><path d="M 81.9 78 L 81.1 76.8 L 76.8 79.7 L 77.6 80.9 L 81.9 78 Z" fill="#000000"/><path d="M 85.3 80.2 L 84.7 79 L 79.4 81.5 L 80 82.7 L 85.3 80.2 Z" fill="#000000"/><path d="M 88.2 82.1 L 87.8 80.8 L 82.8 82.6 L 83.2 83.9 L 88.2 82.1 Z" fill="#000000"/><path d="M 90.7 84.3 L 90.3 82.9 L 85.8 83.9 L 86.2 85.3 L 90.7 84.3 Z" fill="#000000"/><path d="M 93.6 85.3 L 93.1 83.9 L 89 85.3 L 89.4 86.6 L 93.6 85.3 Z" fill="#000000"/><path d="M 97.8 86.6 L 97.6 85.2 L 92.2 86.1 L 92.4 87.5 L 97.8 86.6 Z" fill="#000000"/><path d="M 53.2 83.1 C 53.2 83.1 50.5 82.4 47.7 82.9 C 44.8 83.4 44.7 85.8 44.8 86.9 C 45 88.1 47 88.9 48.7 88.1 C 50.3 87.3 49.2 84.4 49.2 84.4 C 49.2 84.4 51.5 84.1 52.5 84.4 C 53.5 84.8 53.2 83.1 53.2 83.1 Z" fill="#000000"/><path d="M 125.7 29 L 124.6 28.2 C 109.5 47.4 85.3 65.5 85.1 65.7 L 85.9 66.8 C 86.2 66.7 110.5 48.4 125.7 29 Z" fill="#000000"/><path d="M 95.5 59 L 95.2 57.6 C 95.1 57.6 91.3 58.6 88.4 58.2 L 88.3 59.6 C 91.4 60 95.3 59 95.5 59 Z" fill="#000000"/><path d="M 145 41.2 L 136.9 41 L 130.2 40.7 C 129.7 40.7 129.5 40.7 129.4 40.6 C 129.4 39.9 129.7 28.1 129.7 28.1 L 128.3 28.1 L 128 41.1 L 128.1 41.3 C 128.2 41.5 128.7 42.1 130.2 42.1 L 136.8 42.4 L 145 42.6 L 145 41.2 Z" fill="#000000"/><path d="M 129.4 30.4 L 128.3 29.5 C 128.1 29.7 110 52.2 91.3 65.7 L 92.1 66.8 C 110.9 53.3 129.2 30.6 129.4 30.4 Z" fill="#000000"/><path d="M 129.2 35.9 L 128.1 35 C 127.9 35.2 113.4 55.4 93.5 67.7 L 94.2 68.9 C 114.4 56.4 129.1 36.1 129.2 35.9 Z" fill="#000000"/><path d="M 129.3 41.3 L 128.1 40.5 C 128 40.7 116.1 58.1 94.3 70.3 L 95 71.6 C 117.1 59.1 129.1 41.5 129.3 41.3 Z" fill="#000000"/><path d="M 135.4 42.2 L 134.3 41.4 C 134.2 41.5 122.5 56.9 98 71.8 L 98.7 73 C 123.5 58 135.3 42.4 135.4 42.2 Z" fill="#000000"/><path d="M 139.9 42.3 L 138.8 41.5 C 138.6 41.7 126 59.2 99.3 73.5 L 100 74.7 C 127 60.3 139.8 42.5 139.9 42.3 Z" fill="#000000"/><path d="M 145.7 43.3 L 144.7 42.3 C 144.5 42.4 128.6 58.7 99.7 74.7 L 100.3 75.9 C 129.4 59.9 145.5 43.4 145.7 43.3 Z" fill="#000000"/><path d="M 50.5 74.2 C 50.4 74.1 35.9 65.4 27.5 48 C 23.3 39.4 22.2 29.5 22.2 21.6 C 22.2 14.8 23 9.6 23.3 8.1 C 23.4 8.1 23.5 8.1 23.6 8 C 24.6 11.7 31 32.4 54.9 48.2 L 55.7 47 C 30 30.1 24.9 7.4 24.9 7.1 L 24.7 6.5 L 22.1 6.8 L 22 7.3 C 21.9 7.5 17.5 30.7 26.2 48.6 C 34.9 66.4 49.7 75.3 49.8 75.4 L 50.5 74.2 Z" fill="#000000"/><path d="M 135.8 7.8 L 134.6 7.1 C 134 8.1 129 16.8 128.6 18.8 L 130 19.1 C 130.3 17.7 133.6 11.6 135.8 7.8 Z" fill="#000000"/><path d="M 134.6 9.8 L 134.1 8.4 C 133.3 8.8 115 16 113.7 16.6 L 114.3 17.9 C 115.4 17.4 128 12.4 134.6 9.8 Z" fill="#000000"/><path d="M 143.5 10.8 L 142.1 10.7 C 142 12 140.3 15.9 139.7 17.3 L 141 17.9 C 141.2 17.4 143.4 12.6 143.5 10.8 Z" fill="#000000"/><path d="M 145.6 50.5 L 144.7 49.4 C 144.7 49.5 139.8 53.7 126.8 57.4 L 127.2 58.8 C 140.5 55 145.4 50.6 145.6 50.5 Z" fill="#000000"/><path d="M 146.3 53.2 L 145.1 52.4 C 144.9 52.6 129.9 76.1 103.3 83.3 L 103.7 84.6 C 130.8 77.3 146.1 53.4 146.3 53.2 Z" fill="#000000"/><path d="M 76.4 101.7 C 76.9 100.6 76.5 99.9 76.5 99.8 L 75.2 100.4 C 75.2 100.4 75.3 100.7 75 101.2 C 74.4 102.2 72.2 104.2 63.7 106.1 L 64 107.5 C 71.1 105.9 75.3 104 76.4 101.7 Z" fill="#000000"/><path d="M 76.2 104.5 C 76.7 102.8 75.7 101.7 75.7 101.6 L 74.6 102.6 C 74.7 102.6 75.2 103.2 74.9 104.1 C 74.5 105.3 72.4 107.7 63.3 109.9 L 63.7 111.3 C 71.2 109.5 75.4 107.2 76.2 104.5 Z" fill="#000000"/><path d="M 74.8 109.5 C 76.1 107.4 75.5 105.6 75.5 105.6 L 74.2 106 C 74.2 106 74.5 107.3 73.6 108.8 C 72.6 110.3 70 112.4 63.2 113.4 L 63.4 114.8 C 69.3 113.9 73.1 112.1 74.8 109.5 Z" fill="#000000"/><path d="M 76.3 112.4 C 76.7 110.3 74.6 108.9 74.6 108.8 L 73.8 110 C 73.8 110 75.1 110.9 74.9 112.2 C 74.7 113.4 72.9 115.8 63.2 118.4 L 63.5 119.8 C 71.7 117.6 75.8 115.2 76.3 112.4 Z" fill="#000000"/><path d="M 77 116.8 C 77.3 116 77.1 115.3 76.8 114.9 C 76.1 113.8 74.4 113.6 74.3 113.6 L 74.1 115 C 74.4 115 75.3 115.2 75.6 115.7 C 75.7 115.8 75.8 116 75.7 116.4 C 75.2 117.8 72.3 119.8 66.8 121.1 L 67.2 122.5 C 72.6 121.2 76.3 119.1 77 116.8 Z" fill="#000000"/><path d="M 83 117.7 C 83.1 117.2 82.9 116.7 82.4 116.4 C 80.7 115.1 76.7 115.8 76.2 115.9 L 76.5 117.3 C 78 117 80.6 116.8 81.5 117.5 C 81.3 118.3 77.7 120.5 70 122.3 L 70.3 123.6 C 76.3 122.3 82.5 119.9 83 117.7 Z" fill="#000000"/><path d="M 92.4 94.5 C 92.5 93.7 92 93.2 91.7 93 L 91 94.2 C 91 94.3 91 94.4 91 94.4 C 91 94.9 89.9 97.4 75.6 102.6 L 76.1 103.9 C 86.9 100 92.2 97 92.4 94.5 Z" fill="#000000"/><path d="M 92.2 98.6 C 92.3 97.3 91.2 96.6 90.6 96.3 L 90.1 97.6 C 90.1 97.6 90.8 97.9 90.8 98.5 C 90.8 99.3 89.5 102 74.8 106.8 L 75.2 108.1 C 86.5 104.5 92.1 101.4 92.2 98.6 Z" fill="#000000"/><path d="M 85.5 107.2 C 89 105.2 90.6 103.7 90.5 102.3 C 90.5 101.6 89.9 101.1 89.6 101 L 89 102.2 C 89.1 102.3 89.1 102.3 89.1 102.4 C 89.1 102.6 88.9 103.7 84.8 106 C 78.4 109.7 75.6 110.2 75.5 110.2 L 75.8 111.6 C 75.9 111.6 78.8 111.1 85.5 107.2 Z" fill="#000000"/><path d="M 89.2 105.2 L 87.8 105.3 C 87.8 105.4 87.9 106.5 86.9 107.4 L 87.8 108.5 C 89.4 107.1 89.2 105.3 89.2 105.2 Z" fill="#000000"/><path d="M 92.6 104.8 C 99.9 98.9 102.2 99.6 103.3 100.2 C 103.4 100.4 103.5 100.6 103.5 100.6 L 104.8 100 L 104.4 99.1 L 104.2 99 C 102.1 97.9 99.1 97.8 91.7 103.7 C 84.1 109.9 75.2 112.4 75.1 112.4 L 75.5 113.8 C 75.9 113.7 84.8 111.2 92.6 104.8 Z" fill="#000000"/><path d="M 121.4 98.2 C 121.9 97.9 122.8 97.4 122.8 96.5 C 122.8 96.5 122.8 96.5 122.8 96.5 C 122.8 96.1 122.7 95.6 121.8 95.1 C 119.7 94.1 116.2 95.6 113.5 97 C 112.5 97 107.6 96.8 102.6 100.4 L 97.6 104.3 C 92.6 108.2 86.4 113.2 80.4 115.8 L 80.7 117.1 C 81 117.1 88.6 116.9 97.9 111.4 C 103.6 107.9 107.3 104.4 110 101.8 C 111.6 100.2 112.9 99 114 98.4 C 117.3 96.5 119.9 95.8 121.2 96.4 C 121.2 96.4 121.3 96.5 121.3 96.5 C 121.2 96.7 121 96.8 120.7 97 L 120.6 97 L 120.5 97.2 C 107.4 112.8 82.3 127.2 68.9 126.9 C 61.1 126.7 56.1 125.4 53.7 122.9 C 52.7 121.8 52.2 120.4 52.2 118.6 C 52.4 114 55.9 111.3 57.8 109.8 C 60.1 108.1 60.9 105.8 60.3 104.6 C 59.9 103.9 58.7 102.5 58.5 102.3 L 57.5 103.2 C 58 103.8 58.8 104.8 59 105.3 C 59.2 105.5 58.9 107.2 56.9 108.7 C 55 110.2 51 113.3 50.8 118.6 C 50.7 120.7 51.4 122.5 52.7 123.9 C 55.3 126.7 60.6 128.1 68.8 128.3 C 82.6 128.7 108.1 114 121.4 98.2 L 121.4 98.2 Z M 109.1 100.8 L 109.1 100.8 C 106.4 103.3 102.8 106.8 97.1 110.2 C 92.2 113.1 87.8 114.5 84.7 115.1 C 89.6 112.3 94.4 108.6 98.4 105.4 L 103.4 101.5 C 106.5 99.3 109.5 98.7 111.5 98.5 C 110.8 99.2 110 99.9 109.1 100.8 Z" fill="#000000"/><path d="M 146.1 79.5 L 144.9 78.7 C 144.7 79.1 126.6 109.7 119.8 126.5 L 121.2 127 C 127.9 110.3 145.9 79.8 146.1 79.5 Z" fill="#000000"/><path d="M 137.2 117.9 C 135.9 112.1 133.9 102.9 133.9 101.6 L 132.5 101.6 C 132.5 103.5 135.5 116.8 135.8 118.3 L 137.2 117.9 Z" fill="#000000"/><path d="M 131.6 104.6 L 131.4 103.2 C 131.3 103.3 119.4 104.9 116.3 105.1 L 116.4 106.5 C 119.5 106.3 131.1 104.7 131.6 104.6 Z" fill="#000000"/><path d="M 142.8 85 L 142.6 83.6 C 142.5 83.6 131.5 85.2 128.4 84.9 L 128.3 86.3 C 131.5 86.7 142.3 85 142.8 85 Z" fill="#000000"/><path d="M 101 215.2 C 101 214.8 99.2 168.7 110.3 136.2 L 109 135.7 C 97.8 168.5 99.6 214.8 99.6 215.3 L 101 215.2 Z" fill="#000000"/><path d="M 100.4 206.3 C 100.5 206.3 109.6 207.1 109.6 207.1 L 109.7 205.7 L 100.3 204.9 L 100.2 204.9 C 96.7 205.4 90.8 206.2 90.3 206.2 L 90.3 207.6 C 90.8 207.6 98 206.6 100.4 206.3 Z" fill="#000000"/><path d="M 100.8 193.2 C 102 192.7 108 191.6 111.8 191 L 111.6 189.6 C 110.6 189.7 102.6 191 100.5 191.9 C 100.1 191.8 87.2 188.4 87.2 188.4 L 86.8 189.8 L 100.6 193.4 L 100.8 193.2 Z" fill="#000000"/><path d="M 101.8 176.1 C 105 174.7 112.9 172.2 113.6 172.1 L 113.5 170.7 C 112.8 170.7 104.5 173.5 101.5 174.7 C 100.3 174.3 92.2 171.7 89.9 170.8 L 89.4 172.1 C 91.9 173.1 100.9 176 101.3 176.1 L 101.5 176.2 L 101.8 176.1 Z" fill="#000000"/><path d="M 104.8 156.9 C 105.4 156.6 109.8 155.9 113.8 155.3 L 113.6 153.9 C 112.3 154.1 105.9 155 104.4 155.6 C 103 155.4 94.1 154.7 92.6 154.9 L 92.7 156.3 C 93.8 156.2 100.3 156.6 104.4 157 L 104.6 157 L 104.8 156.9 Z" fill="#000000"/><path d="M 106.9 144.9 C 106.5 144.8 96.7 141.1 93.5 140.4 L 93.2 141.8 C 96.3 142.4 106.3 146.2 106.4 146.3 L 106.9 144.9 Z" fill="#000000"/><path d="M 83 143.3 L 82.7 141.9 C 82.6 141.9 74.9 143.5 71 142.9 C 69.7 142.7 68.6 142.2 67.3 141.7 C 64.7 140.6 61.7 139.4 56.5 140.6 L 56.8 142 C 61.6 140.9 64.2 142 66.8 143 C 68.1 143.6 69.3 144.1 70.7 144.3 C 75 145 82.7 143.4 83 143.3 Z" fill="#000000"/><path d="M 68.6 143.9 L 72.9 142.1 C 77.9 140.2 80.7 139.3 82.8 139.5 L 82.9 138.1 C 80.5 137.9 77.6 138.8 72.4 140.8 L 68 142.6 C 64.7 144.1 61.2 145.7 58.7 145.6 C 55.1 145.4 51.9 143.2 51.9 143.2 L 51.1 144.4 C 51.2 144.5 54.6 146.8 58.6 147 C 61.5 147.1 65 145.6 68.6 143.9 Z" fill="#000000"/><path d="M 51.9 156.4 C 51.8 156.2 48.4 150.7 46.2 148 C 44.1 145.4 39 136.6 37.5 133.5 L 36.2 134.1 C 37.7 137.3 42.9 146.1 45.1 148.9 C 47.2 151.5 50.7 157.1 50.7 157.1 L 51.9 156.4 Z" fill="#000000"/><path d="M 42.5 152 C 44.1 151.4 45.6 150.9 46.5 150.4 C 48.8 149.2 51.7 143.2 52 142.6 L 50.7 142 C 49.9 143.7 47.4 148.3 45.8 149.2 C 45 149.6 43.6 150.1 42.1 150.7 C 39.6 151.5 37.2 152.4 36.3 153.3 L 37.3 154.3 C 38 153.6 40.5 152.7 42.5 152 Z" fill="#000000"/><path d="M 38.7 225.8 C 42.1 225 42.9 222.1 42.9 220.2 C 42.9 220.1 42.9 220.1 42.9 220.1 C 44.4 219.8 47.7 219 49.8 215.6 C 50.5 214.5 50.7 213.4 50.7 212.4 C 50.7 209.2 48.3 206.4 47.3 205.4 C 47.9 204.4 49.1 202.3 49.1 199.4 C 49.1 198.7 49 197.9 48.9 197.1 C 48.4 194.6 46.6 192.8 44.4 192.4 C 41.8 191.9 39.3 193.2 37.6 195.9 C 35.2 199.5 37.1 203.7 37.2 203.9 L 38.5 203.3 C 38.5 203.3 36.8 199.6 38.8 196.7 C 40.2 194.5 42.2 193.4 44.1 193.8 C 45.8 194.1 47.1 195.5 47.5 197.4 C 48.4 201.8 45.8 205 45.8 205 L 45.4 205.5 L 45.9 206 C 46.4 206.5 51.1 210.9 48.6 214.9 C 46.3 218.5 42.2 218.7 42.1 218.7 L 41.4 218.8 L 41.5 219.5 C 41.5 219.7 42 223.6 38.3 224.4 C 35.6 225 32.3 224.4 30.2 222.9 C 28.9 221.9 28.1 220.6 28 219.1 C 27.7 214.4 32 212.3 32.1 212.2 L 33.3 211.7 L 32.2 211 C 31.5 210.5 27.9 206.8 29.2 201.3 C 29.8 198.8 31.3 195 32.8 191.1 C 35 185.7 37.4 179.7 38 175.4 C 39.2 168 37.3 159.6 37.2 159.3 L 35.8 159.6 C 35.8 159.7 37 164.7 37 170.3 C 37 171.9 36.9 173.6 36.6 175.2 C 36 179.3 33.6 185.3 31.5 190.5 C 29.9 194.6 28.4 198.4 27.8 200.9 C 27.6 201.9 27.5 202.8 27.5 203.6 C 27.5 207.5 29.4 210.2 30.7 211.5 C 29.2 212.4 26.6 214.7 26.6 218.6 C 26.6 218.8 26.6 219 26.6 219.2 C 26.8 221.1 27.7 222.8 29.4 224 C 31.8 225.8 35.5 226.5 38.7 225.8 Z" fill="#000000"/><path d="M 27 184.7 C 30.5 182.9 31 179.9 31.5 176.8 L 32 174.3 C 32.8 171.1 35.8 167.8 38.7 164.6 L 40.9 162.2 C 44.5 158.1 44.5 151.1 44.5 150.8 L 43.1 150.8 C 43.1 150.8 43.1 157.6 39.8 161.3 L 37.7 163.7 C 34.6 167 31.5 170.4 30.6 173.9 L 30.1 176.6 C 29.6 179.6 29.2 181.9 26.3 183.5 C 24.7 184.4 23.2 184.6 22.2 184.1 C 21.2 183.6 20.6 182.6 20.4 181.2 C 20 178.7 24.8 177.1 24.9 177.1 L 24.5 175.8 C 24.2 175.8 18.4 177.7 19 181.4 C 19.3 183.3 20.2 184.7 21.5 185.3 C 22.6 185.8 24.4 186.2 27 184.7 Z" fill="#000000"/></svg>